<?xml version="1.0" standalone="no"?>
<!DOCTYPE svg PUBLIC "-//W3C//DTD SVG 20010904//EN"
 "http://www.w3.org/TR/2001/REC-SVG-20010904/DTD/svg10.dtd">
<svg version="1.0" xmlns="http://www.w3.org/2000/svg"
 width="160.000000pt" height="160.000000pt" viewBox="0 0 160.000000 160.000000"
 preserveAspectRatio="xMidYMid meet">
<metadata>
Created by potrace 1.14, written by Peter Selinger 2001-2017
</metadata>
<g transform="translate(0.000000,160.000000) scale(0.100000,-0.100000)"
fill="#000000" stroke="none">
<path d="M729 1526 c-2 -2 -23 -6 -47 -10 -121 -16 -261 -129 -300 -242 -17
-48 -20 -78 -17 -164 2 -58 5 -114 8 -125 2 -11 -2 -24 -9 -30 -23 -17 -20
-73 11 -182 12 -40 21 -53 43 -61 22 -8 9 -11 -65 -11 -83 -1 -93 -3 -104 -22
-10 -20 -8 -126 6 -321 4 -51 2 -60 -21 -85 -42 -45 -85 -141 -101 -225 -1
-10 -4 -23 -5 -30 -2 -10 131 -14 683 -16 675 -2 687 -2 692 17 3 11 2 22 -1
26 -3 3 -7 11 -8 18 -9 53 -79 196 -103 212 -10 6 -9 44 5 240 10 135 6 168
-23 179 -9 4 -52 7 -95 7 -46 0 -76 4 -73 10 4 5 13 9 21 9 19 0 38 47 54 137
12 66 12 75 -4 92 -15 16 -16 28 -9 78 41 267 -67 435 -312 489 -33 7 -220 15
-226 10z"/>
</g>
</svg>
